<svg width="38" height="27" viewBox="0 0 38 27" fill="none" xmlns="http://www.w3.org/2000/svg">
<path d="M33.3905 4.56096L33.4016 4.54555L33.4134 4.53073L36.437 0.751196H31H24.3518L19.5804 6.47687C18.193 8.18975 16.73 9.87497 15.5954 11.1646C15.3113 11.4875 15.0476 11.7859 14.8107 12.0536L14.7311 12.1437C14.5265 12.375 14.3441 12.5812 14.1873 12.7594C14.0517 12.9136 13.9371 13.0447 13.8453 13.1512C13.8719 13.1983 13.9031 13.2516 13.9393 13.3114C14.1557 13.6687 14.4982 14.1719 14.948 14.7951C15.8426 16.0346 17.1246 17.6977 18.579 19.5212L24.3455 26.2488H31H36.1865L35.4688 25.5312L35.4329 25.4953L35.4022 25.4549C34.875 24.7621 33.9551 23.4584 32.9482 22.0312C32.0981 20.8264 31.1859 19.5335 30.3957 18.4462L27.399 14.4507L27.1205 14.0793L27.3281 13.6641L28.3281 11.6641L28.3619 11.5966L28.4083 11.5371C28.7192 11.1398 29.5188 10.0094 30.5324 8.57635C31.3877 7.36708 32.3955 5.94236 33.3905 4.56096ZM9.32811 13.3359L9.08597 12.8517L9.46882 12.4688L10.4309 11.5068C10.7447 11.0899 11.3013 10.4102 11.9172 9.65808C12.0132 9.54088 12.1106 9.42193 12.2087 9.30194C12.9654 8.37688 13.7798 7.37426 14.3866 6.56592L15.5964 4.7512H12H7.3756L4.60096 8.45072L4.59027 8.46497L4.57891 8.4787C4.14099 9.00829 3.70009 9.53626 3.27798 10.0417C2.76885 10.6514 2.28705 11.2283 1.87079 11.7359C1.49226 12.1975 1.18044 12.5866 0.9641 12.8746C0.91925 12.9344 0.879963 12.9878 0.846012 13.0351C0.855972 13.0514 0.866531 13.0684 0.877708 13.0863C1.02311 13.3189 1.24077 13.6381 1.51591 14.0234C2.06415 14.7912 2.81522 15.7863 3.60995 16.8054C4.40417 17.8238 5.23713 18.8599 5.94788 19.709C6.67334 20.5757 7.23426 21.2023 7.50007 21.4394C7.56809 21.4999 7.9046 21.712 8.67125 21.9059C9.41249 22.0932 10.4989 22.2488 12 22.2488H15.5964L14.3865 20.4341C13.7836 19.6308 12.9694 18.6284 12.2116 17.702C12.115 17.5839 12.0192 17.4668 11.9246 17.3514C11.2832 16.568 10.7048 15.8617 10.3973 15.4484L10.3578 15.3952L10.3281 15.3359L9.32811 13.3359Z" stroke="#11E5B3" stroke-width="1.50239"/>
</svg>
