<svg width="26" height="4" viewBox="0 0 26 4" fill="none" xmlns="http://www.w3.org/2000/svg">
<path d="M3.00003 3.00014C1.94905 3.16714 0.366128 1.6308 1.00003 1.00014C1.25439 0.747138 2.53651 0.945471 3.00003 1.00014C4.1366 1.13414 4.1261 2.82114 3.00003 3.00014Z" fill="#11E5B3"/>
<path d="M6.00003 3.00014C5.13801 3.00014 4.64634 1.76047 5.00003 1.00014C5.31132 0.329805 6.68348 1.3188 7.00003 2.00014C7.32061 2.68947 7.00134 3.00014 6.00003 3.00014Z" fill="#11E5B3"/>
<path d="M10 3.00014C8.99104 3.00014 8.62372 1.81014 9.00003 1.00014C9.26166 0.438138 10.6124 0.482805 11 1.00014C11.4894 1.6538 10.9598 3.00014 10 3.00014Z" fill="#11E5B3"/>
<path d="M14 3.00014C12.949 3.16714 12.3661 1.6308 13 1.00014C13.2544 0.747138 13.5365 0.945471 14 1.00014C15.1366 1.13414 15.1261 2.82114 14 3.00014Z" fill="#11E5B3"/>
<path d="M17 3.00014C16.2305 3.00014 15.5712 1.5728 16 1.00014C16.4018 0.463805 18.7235 1.40514 19 2.00014C19.3154 2.67847 17.9666 3.00014 17 3.00014Z" fill="#11E5B3"/>
<path d="M21 3.00014C20.0052 3.00014 19.6257 1.8058 20 1.00014C20.128 0.725138 20.4925 1.00014 21 1.00014C21.5075 1.00014 21.872 0.725138 22 1.00014C22.3743 1.8058 21.9949 3.00014 21 3.00014Z" fill="#11E5B3"/>
<path d="M25 3.00014C23.949 3.16714 23.3661 1.6308 24 1.00014C24.2544 0.747138 24.5365 0.945471 25 1.00014C26.1366 1.13414 26.1261 2.82114 25 3.00014Z" fill="#11E5B3"/>
</svg>
